<svg viewBox="0 0 400 124" xmlns="http://www.w3.org/2000/svg"><path d="M209.544 49.633a15.558 15.558 0 01-4.572 11.481c-4.033 4.004-10.575 6.186-18.44 6.126-5.646-.093-11.35-1.466-14.577-3.448l2.15-11.309a32.471 32.471 0 0013.854 3.906c3.671 0 6.144-1.694 6.144-4.411 0-2.463-1.738-4.185-6.179-6.357-7.024-3.513-10.538-7.965-10.538-13.213 0-10.325 8.795-17.303 21.99-17.303 6.982 0 11.527 1.645 14.048 3.263l-2.146 11.285c-1.998-1.5-7.075-3.595-12.613-3.595-3.845 0-6.35 1.61-6.35 4.307 0 1.935 1.917 3.668 5.974 5.645 5.285 2.641 11.255 6.551 11.255 13.623zm-91.461-34.425c-18.588 0-32.594 13.574-32.594 31.574 0 12.431 8.26 20.458 21.073 20.458 5.48 0 10.808-1.004 14.238-2.674l2.348-12.401a26.236 26.236 0 01-12.406 3.207c-4.686 0-9.712-2.696-9.712-10.222 0-8.868 6.29-18.072 16.847-18.072a16.143 16.143 0 018.186 1.949l2.298-12.058a28.619 28.619 0 00-10.278-1.76zm260.64 40.469a33.063 33.063 0 0017.425-4.918l-2.376 12.484c-7.069 3.609-15.373 4-18.617 4-13.8 0-21.688-7.674-21.688-21.073a33.098 33.098 0 017.781-21.24 27.695 27.695 0 0121.348-9.824c10.44 0 17.404 6.066 17.404 15.059a13.633 13.633 0 01-4.019 10.177c-4.986 4.86-17.274 7.582-28.466 5.385-.533 6.306 4.214 9.95 11.208 9.95zm-9.586-19.573c8.704.072 13.6-.809 15.737-2.925 2.314-2.298 1.59-7.223-4.113-7.223-6.417 0-10.501 5.26-11.624 10.148zm-23.175-20.896c-18.588 0-32.594 13.574-32.594 31.574 0 12.431 8.26 20.458 21.074 20.458 5.48 0 10.807-1.004 14.237-2.674l2.348-12.401a26.235 26.235 0 01-12.406 3.207c-4.686 0-9.712-2.696-9.712-10.222 0-8.868 6.29-18.072 16.847-18.072a16.144 16.144 0 018.186 1.949l2.298-12.058a28.619 28.619 0 00-10.278-1.76zM310.928 38.23l-5.35 27.992h-14.166l1.841-9.635c-1.987 6.005-6.827 10.757-14.948 10.757-9.856 0-14.31-8.75-14.315-17.506-.007-9.947 3.901-19.798 10.446-26.348a28.322 28.322 0 0120.47-8.385c6.019.024 10.471 1.766 13.261 5.147 4.13 5.004 3.791 12.516 2.76 17.978zm-13.64-6.44c-.173-3.53-2.01-5.433-5.304-5.433-6.977 0-13.02 12.042-13.015 20.415.002 5.232 1.94 8.49 5.315 8.49 5.396 0 10.043-5.643 11.642-13.907.545-2.793 1.462-7.377 1.362-9.565zm-214.24 6.44L77.7 66.222H63.533l1.841-9.635c-1.987 6.005-6.827 10.757-14.948 10.757-9.856 0-14.31-8.75-14.315-17.506-.007-9.947 3.901-19.798 10.446-26.348a28.322 28.322 0 0120.47-8.385c6.02.024 10.471 1.766 13.261 5.147 4.13 5.004 3.791 12.516 2.76 17.978zM69.41 31.79c-.173-3.53-2.01-5.433-5.305-5.433-6.976 0-13.02 12.042-13.015 20.415.002 5.232 1.941 8.49 5.315 8.49 5.396 0 10.044-5.643 11.643-13.907.544-2.793 1.46-7.377 1.362-9.565zM263 34.14c0 12.161-5.839 24.63-16.363 30.241a23.611 23.611 0 01-10.782 2.963c-5.269 0-8.222-1.97-9.906-5.006L222.18 82.25h-14.832l12.591-66.224h13.063l-1.527 8.04c3.69-5.37 9.157-8.96 15.343-8.96C256.635 15.104 263 22.543 263 34.14zm-15.425 1.123c0-2.357-.556-8.082-5.989-8.082-5.524 0-10.188 6.294-11.995 15.84-.62 3.263-2.351 13.064 4.473 13.064 7.79 0 13.51-11.059 13.51-20.822zM20.663 27.154l2.114-11.128H9.715L0 67.106h14.834l4.006-21.06c2.362-12.42 9.486-17.389 19.626-15.854l2.897-15.236a20.55 20.55 0 00-20.7 12.198zm118.975 39.068l5.109-26.877 10.516 26.877h15.95l-10.88-27.09 19.802-23.106h-16.192L144.836 38.88 152.226 0h-14.73l-12.59 66.222zm249.469 44.137l-.112.586h-1.292l-.633 3.33h-.638l.633-3.33h-1.298l.112-.586zm4.778 0l-.746 3.915h-.637l.521-2.741-1.59 1.857h-.38l-.882-1.863-.523 2.747h-.637l.745-3.915h.575l1.062 2.242 1.914-2.242zm-83.576-9.023c0 7.235-5.01 13.415-12.24 13.415-5.354 0-8.665-3.703-8.665-8.75 0-7.188 5.009-13.415 12.24-13.415 5.702 0 8.665 4.094 8.665 8.75zm-15.679 4.533c0 2.915 1.524 4.966 4.137 4.966 3.792 0 6.315-5.226 6.315-9.456 0-2.175-1-4.877-4.051-4.877-4.048 0-6.401 5.405-6.401 9.367zm50.194-4.533c0 7.235-5.01 13.415-12.24 13.415-5.354 0-8.665-3.703-8.665-8.75 0-7.188 5.009-13.415 12.24-13.415 5.702 0 8.665 4.094 8.665 8.75zm-15.679 4.533c0 2.915 1.524 4.966 4.137 4.966 3.792 0 6.315-5.226 6.315-9.456 0-2.175-1-4.877-4.051-4.877-4.048 0-6.401 5.405-6.401 9.367zm-11.247-19.747l-5.355 28.152h5.056l5.393-28.152zm-81.756 6.507a13.365 13.365 0 00-13.457 13.631c0 5.052 3.264 8.448 8.58 8.448a14.268 14.268 0 006.253-1.294l.837-4.402a11.438 11.438 0 01-5.699 1.602c-2.83 0-4.66-1.787-4.66-4.962 0-4.443 3.094-8.929 7.972-8.929a7.677 7.677 0 013.907.989l.802-4.218a11.683 11.683 0 00-4.535-.865zm-28.974 15.942a5.835 5.835 0 01-.566-3.009c8.188.175 13.89-1.57 13.89-7.009 0-3.575-2.655-5.967-6.838-5.967-7.316 0-12.019 6.967-12.019 13.368 0 5.183 2.83 8.797 8.712 8.797a16.518 16.518 0 008.016-1.989l.868-4.566a12.771 12.771 0 01-7.71 2.55 4.686 4.686 0 01-4.353-2.175zm5.835-12.197c1.613 0 2.698.826 2.698 2.179 0 2.566-3.354 3.264-8.58 3.217.613-2.566 2.702-5.396 5.882-5.396zm72.902 2.043c0-4.005-2.353-5.83-5.4-5.83a9.18 9.18 0 00-7.747 4.447l.785-4.099h-4.573l-4.059 21.34h5.056l1.877-9.798c.915-4.97 3.826-7.754 6.133-7.754 2.004 0 2.66 1.26 2.66 3.047a14.16 14.16 0 01-.25 2.528l-2.278 11.976h5.056l2.37-12.368a19.874 19.874 0 00.37-3.49zm-29.37-5.83a8.942 8.942 0 00-7.055 3.508l1.911-9.973h-5.094l-5.355 28.152h5.056l1.877-9.797c.915-4.97 3.826-7.754 6.132-7.754 2.005 0 2.66 1.26 2.66 3.047a14.162 14.162 0 01-.25 2.528l-2.277 11.976h5.055l2.37-12.368a19.883 19.883 0 00.371-3.49c0-4.004-2.353-5.83-5.4-5.83zm-58.869-4.983h-4.932l-1.083 5.459h-2.83l-.74 3.92h2.834l-1.83 9.452a19.77 19.77 0 00-.439 3.92c0 2.439 1.528 4.354 5.01 4.354a10.12 10.12 0 003.31-.434l.766-4.021a10.016 10.016 0 01-2.03.19 1.675 1.675 0 01-1.872-1.919 15.018 15.018 0 01.392-3.005l1.655-8.537h4.75l.783-3.92h-4.75zM368.053 122.2c3.885 1.797 7.715 1.002 10.491-3.965v-.009l14.19-25.292h-5.401l-8.058 15.79-1.957-15.79h-5.316l3.78 20.77-1.654 3.315c-1.487 2.54-4.081 1.711-5.288 1.042zm-6.903-29.615c-9.02 0-13.639 7.975-13.639 14.686 0 3.79 1.874 7.495 6.406 7.495a8.542 8.542 0 007.05-3.787l-.406 1.856c-1.043 4.924-3.57 6.49-6.882 6.49a12.262 12.262 0 01-5.575-1.264l-.787 4.139a15.067 15.067 0 006.257 1.176 12.462 12.462 0 007.92-2.353c2.42-2 3.612-5.312 4.403-9.448l1.92-9.62a17.519 17.519 0 00.435-3.66c.002-3.835-2.657-5.71-7.102-5.71zm1.613 9.108l-.392 1.96c-.872 4.272-3.574 6.973-6.188 6.973-2.353 0-3.356-1.96-3.356-4.27 0-4.183 2.92-9.892 7.364-9.892a2.534 2.534 0 012.833 2.702 10.822 10.822 0 01-.261 2.527z" fill="#fff"/></svg>